HIERARCHY
ROOT mixamorig:Hips
{
	OFFSET -0.000008 104.274872 1.554316
	CHANNELS 6 Xposition Yposition Zposition Xrotation Yrotation Zrotation
	JOINT mixamorig:Spine
	{
		OFFSET -0.000005 10.181595 0.131519
		CHANNELS 6 Xposition Yposition Zposition Xrotation Yrotation Zrotation
		JOINT mixamorig:Spine1
		{
			OFFSET -0.000000 9.893959 -1.470707
			CHANNELS 6 Xposition Yposition Zposition Xrotation Yrotation Zrotation
			JOINT mixamorig:Spine2
			{
				OFFSET -0.000000 9.220757 -1.370641
				CHANNELS 6 Xposition Yposition Zposition Xrotation Yrotation Zrotation
				JOINT mixamorig:Neck
				{
					OFFSET 0.000001 16.740417 -2.049036
					CHANNELS 6 Xposition Yposition Zposition Xrotation Yrotation Zrotation
					JOINT mixamorig:Head
					{
						OFFSET 0.000000 9.617874 1.685006
						CHANNELS 6 Xposition Yposition Zposition Xrotation Yrotation Zrotation
						JOINT mixamorig:HeadTop_End
						{
							OFFSET 0.000002 22.037354 7.501101
							CHANNELS 6 Xposition Yposition Zposition Xrotation Yrotation Zrotation
							End Site
							{
								OFFSET 0.000168 2310.654297 -282.823242
							}
						}
					}
				}
				JOINT mixamorig:RightShoulder
				{
					OFFSET -4.569970 11.014908 -2.160885
					CHANNELS 6 Xposition Yposition Zposition Xrotation Yrotation Zrotation
					JOINT mixamorig:RightArm
					{
						OFFSET -10.592851 -0.524811 -2.232101
						CHANNELS 6 Xposition Yposition Zposition Xrotation Yrotation Zrotation
						JOINT mixamorig:RightForeArm
						{
							OFFSET -27.841511 0.000031 -0.000004
							CHANNELS 6 Xposition Yposition Zposition Xrotation Yrotation Zrotation
							JOINT mixamorig:RightHand
							{
								OFFSET -28.328831 -0.000015 0.000015
								CHANNELS 6 Xposition Yposition Zposition Xrotation Yrotation Zrotation
								JOINT mixamorig:RightHandThumb1
								{
									OFFSET -2.464806 -1.573990 2.681852
									CHANNELS 6 Xposition Yposition Zposition Xrotation Yrotation Zrotation
									JOINT mixamorig:RightHandThumb2
									{
										OFFSET -3.215179 -1.872803 1.924282
										CHANNELS 6 Xposition Yposition Zposition Xrotation Yrotation Zrotation
										JOINT mixamorig:RightHandThumb3
										{
											OFFSET -2.654831 -1.527969 1.512609
											CHANNELS 6 Xposition Yposition Zposition Xrotation Yrotation Zrotation
											JOINT mixamorig:RightHandThumb4
											{
												OFFSET -2.018814 -1.152008 1.108052
												CHANNELS 6 Xposition Yposition Zposition Xrotation Yrotation Zrotation
												End Site
												{
													OFFSET -188.809540 -114.533607 132.431396
												}
											}
										}
									}
								}
								JOINT mixamorig:RightHandIndex1
								{
									OFFSET -9.108284 -0.517868 2.259835
									CHANNELS 6 Xposition Yposition Zposition Xrotation Yrotation Zrotation
									JOINT mixamorig:RightHandIndex2
									{
										OFFSET -3.699989 0.000000 0.001215
										CHANNELS 6 Xposition Yposition Zposition Xrotation Yrotation Zrotation
										JOINT mixamorig:RightHandIndex3
										{
											OFFSET -2.850006 0.000031 -0.000522
											CHANNELS 6 Xposition Yposition Zposition Xrotation Yrotation Zrotation
											JOINT mixamorig:RightHandIndex4
											{
												OFFSET -2.772186 -0.000015 -0.000020
												CHANNELS 6 Xposition Yposition Zposition Xrotation Yrotation Zrotation
												End Site
												{
													OFFSET -277.218445 0.000000 -0.050231
												}
											}
										}
									}
								}
								JOINT mixamorig:RightHandMiddle1
								{
									OFFSET -9.532516 -0.000031 -0.000023
									CHANNELS 6 Xposition Yposition Zposition Xrotation Yrotation Zrotation
									JOINT mixamorig:RightHandMiddle2
									{
										OFFSET -3.700005 -0.000015 0.003713
										CHANNELS 6 Xposition Yposition Zposition Xrotation Yrotation Zrotation
										JOINT mixamorig:RightHandMiddle3
										{
											OFFSET -2.949974 0.000015 -0.002054
											CHANNELS 6 Xposition Yposition Zposition Xrotation Yrotation Zrotation
											JOINT mixamorig:RightHandMiddle4
											{
												OFFSET -2.946640 0.000000 -0.000156
												CHANNELS 6 Xposition Yposition Zposition Xrotation Yrotation Zrotation
												End Site
												{
													OFFSET -294.664337 0.000000 -0.113670
												}
											}
										}
									}
								}
								JOINT mixamorig:RightHandRing1
								{
									OFFSET -9.103600 -0.043076 -1.865134
									CHANNELS 6 Xposition Yposition Zposition Xrotation Yrotation Zrotation
									JOINT mixamorig:RightHandRing2
									{
										OFFSET -3.379288 0.000000 -0.001055
										CHANNELS 6 Xposition Yposition Zposition Xrotation Yrotation Zrotation
										JOINT mixamorig:RightHandRing3
										{
											OFFSET -2.889687 -0.000015 0.000379
											CHANNELS 6 Xposition Yposition Zposition Xrotation Yrotation Zrotation
											JOINT mixamorig:RightHandRing4
											{
												OFFSET -2.638809 -0.000015 0.000941
												CHANNELS 6 Xposition Yposition Zposition Xrotation Yrotation Zrotation
												End Site
												{
													OFFSET -263.880371 0.000000 0.516020
												}
											}
										}
									}
								}
								JOINT mixamorig:RightHandPinky1
								{
									OFFSET -8.076683 -0.486710 -3.806280
									CHANNELS 6 Xposition Yposition Zposition Xrotation Yrotation Zrotation
									JOINT mixamorig:RightHandPinky2
									{
										OFFSET -3.600014 -0.000015 -0.003747
										CHANNELS 6 Xposition Yposition Zposition Xrotation Yrotation Zrotation
										JOINT mixamorig:RightHandPinky3
										{
											OFFSET -2.099983 0.000000 -0.005739
											CHANNELS 6 Xposition Yposition Zposition Xrotation Yrotation Zrotation
											JOINT mixamorig:RightHandPinky4
											{
												OFFSET -2.115768 -0.000031 -0.003680
												CHANNELS 6 Xposition Yposition Zposition Xrotation Yrotation Zrotation
												End Site
												{
													OFFSET -211.577087 0.000000 -0.350686
												}
											}
										}
									}
								}
							}
						}
					}
				}
				JOINT mixamorig:LeftShoulder
				{
					OFFSET 4.570447 11.014725 -2.160855
					CHANNELS 6 Xposition Yposition Zposition Xrotation Yrotation Zrotation
					JOINT mixamorig:LeftArm
					{
						OFFSET 10.592371 -0.524597 -2.232119
						CHANNELS 6 Xposition Yposition Zposition Xrotation Yrotation Zrotation
						JOINT mixamorig:LeftForeArm
						{
							OFFSET 27.841532 -0.000031 0.000026
							CHANNELS 6 Xposition Yposition Zposition Xrotation Yrotation Zrotation
							JOINT mixamorig:LeftHand
							{
								OFFSET 28.328846 -0.000061 0.000022
								CHANNELS 6 Xposition Yposition Zposition Xrotation Yrotation Zrotation
								JOINT mixamorig:LeftHandThumb1
								{
									OFFSET 2.466141 -1.576172 2.681732
									CHANNELS 6 Xposition Yposition Zposition Xrotation Yrotation Zrotation
									JOINT mixamorig:LeftHandThumb2
									{
										OFFSET 3.217812 -1.872070 1.916482
										CHANNELS 6 Xposition Yposition Zposition Xrotation Yrotation Zrotation
										JOINT mixamorig:LeftHandThumb3
										{
											OFFSET 2.656029 -1.528778 1.514513
											CHANNELS 6 Xposition Yposition Zposition Xrotation Yrotation Zrotation
											JOINT mixamorig:LeftHandThumb4
											{
												OFFSET 2.020889 -1.154053 1.115139
												CHANNELS 6 Xposition Yposition Zposition Xrotation Yrotation Zrotation
												End Site
												{
													OFFSET 190.885437 -115.081749 130.048782
												}
											}
										}
									}
								}
								JOINT mixamorig:LeftHandIndex1
								{
									OFFSET 9.109314 -0.518021 2.259871
									CHANNELS 6 Xposition Yposition Zposition Xrotation Yrotation Zrotation
									JOINT mixamorig:LeftHandIndex2
									{
										OFFSET 3.699989 0.000000 -0.000322
										CHANNELS 6 Xposition Yposition Zposition Xrotation Yrotation Zrotation
										JOINT mixamorig:LeftHandIndex3
										{
											OFFSET 2.850006 0.000000 0.000352
											CHANNELS 6 Xposition Yposition Zposition Xrotation Yrotation Zrotation
											JOINT mixamorig:LeftHandIndex4
											{
												OFFSET 2.774864 -0.000031 -0.000027
												CHANNELS 6 Xposition Yposition Zposition Xrotation Yrotation Zrotation
												End Site
												{
													OFFSET 277.486267 0.000000 -0.009857
												}
											}
										}
									}
								}
								JOINT mixamorig:LeftHandMiddle1
								{
									OFFSET 9.533394 0.000061 0.000044
									CHANNELS 6 Xposition Yposition Zposition Xrotation Yrotation Zrotation
									JOINT mixamorig:LeftHandMiddle2
									{
										OFFSET 3.699989 -0.000015 -0.000231
										CHANNELS 6 Xposition Yposition Zposition Xrotation Yrotation Zrotation
										JOINT mixamorig:LeftHandMiddle3
										{
											OFFSET 2.949997 -0.000015 -0.000059
											CHANNELS 6 Xposition Yposition Zposition Xrotation Yrotation Zrotation
											JOINT mixamorig:LeftHandMiddle4
											{
												OFFSET 2.952896 0.000031 0.000063
												CHANNELS 6 Xposition Yposition Zposition Xrotation Yrotation Zrotation
												End Site
												{
													OFFSET 295.289337 0.000000 0.022810
												}
											}
										}
									}
								}
								JOINT mixamorig:LeftHandRing1
								{
									OFFSET 9.104523 -0.042999 -1.865074
									CHANNELS 6 Xposition Yposition Zposition Xrotation Yrotation Zrotation
									JOINT mixamorig:LeftHandRing2
									{
										OFFSET 3.150009 -0.000031 0.000043
										CHANNELS 6 Xposition Yposition Zposition Xrotation Yrotation Zrotation
										JOINT mixamorig:LeftHandRing3
										{
											OFFSET 2.949982 -0.000015 0.000040
											CHANNELS 6 Xposition Yposition Zposition Xrotation Yrotation Zrotation
											JOINT mixamorig:LeftHandRing4
											{
												OFFSET 2.644348 0.000000 0.000057
												CHANNELS 6 Xposition Yposition Zposition Xrotation Yrotation Zrotation
												End Site
												{
													OFFSET 264.434631 0.000000 0.012105
												}
											}
										}
									}
								}
								JOINT mixamorig:LeftHandPinky1
								{
									OFFSET 8.077789 -0.486847 -3.806259
									CHANNELS 6 Xposition Yposition Zposition Xrotation Yrotation Zrotation
									JOINT mixamorig:LeftHandPinky2
									{
										OFFSET 3.599953 0.000031 0.014727
										CHANNELS 6 Xposition Yposition Zposition Xrotation Yrotation Zrotation
										JOINT mixamorig:LeftHandPinky3
										{
											OFFSET 2.100021 0.000015 0.007705
											CHANNELS 6 Xposition Yposition Zposition Xrotation Yrotation Zrotation
											JOINT mixamorig:LeftHandPinky4
											{
												OFFSET 2.125504 0.000031 0.007517
												CHANNELS 6 Xposition Yposition Zposition Xrotation Yrotation Zrotation
												End Site
												{
													OFFSET 212.550781 0.000000 0.625752
												}
											}
										}
									}
								}
							}
						}
					}
				}
			}
		}
	}
	JOINT mixamorig:RightUpLeg
	{
		OFFSET -8.207787 -6.751648 -1.599560
		CHANNELS 6 Xposition Yposition Zposition Xrotation Yrotation Zrotation
		JOINT mixamorig:RightLeg
		{
			OFFSET -0.000002 -44.370117 0.345942
			CHANNELS 6 Xposition Yposition Zposition Xrotation Yrotation Zrotation
			JOINT mixamorig:RightFoot
			{
				OFFSET 0.000003 -44.423679 -3.043532
				CHANNELS 6 Xposition Yposition Zposition Xrotation Yrotation Zrotation
				JOINT mixamorig:RightToeBase
				{
					OFFSET -0.000002 -8.728671 10.710558
					CHANNELS 6 Xposition Yposition Zposition Xrotation Yrotation Zrotation
					JOINT mixamorig:RightToe_End
					{
						OFFSET -0.000001 -0.000679 9.278119
						CHANNELS 6 Xposition Yposition Zposition Xrotation Yrotation Zrotation
						End Site
						{
							OFFSET 0.000000 -0.067690 927.812134
						}
					}
				}
			}
		}
	}
	JOINT mixamorig:LeftUpLeg
	{
		OFFSET 8.207793 -6.751686 -1.599556
		CHANNELS 6 Xposition Yposition Zposition Xrotation Yrotation Zrotation
		JOINT mixamorig:LeftLeg
		{
			OFFSET -0.000004 -44.370014 0.346954
			CHANNELS 6 Xposition Yposition Zposition Xrotation Yrotation Zrotation
			JOINT mixamorig:LeftFoot
			{
				OFFSET -0.000001 -44.423672 -3.044401
				CHANNELS 6 Xposition Yposition Zposition Xrotation Yrotation Zrotation
				JOINT mixamorig:LeftToeBase
				{
					OFFSET -0.000002 -8.728669 10.710558
					CHANNELS 6 Xposition Yposition Zposition Xrotation Yrotation Zrotation
					JOINT mixamorig:LeftToe_End
					{
						OFFSET -0.000003 -0.000679 9.278133
						CHANNELS 6 Xposition Yposition Zposition Xrotation Yrotation Zrotation
						End Site
						{
							OFFSET 0.000000 -0.068021 927.813477
						}
					}
				}
			}
		}
	}
}
MOTION
Frames: 3
Frame Time: 0.033333
0.000006 104.270477 1.554256 0.000010 0.000003 -0.000113 -0.000005 10.181587 0.131522 0.000001 -0.000003 0.000084 -0.000000 9.893967 -1.470711 0.000001 0.000000 -0.000000 -0.000000 9.220802 -1.370642 0.000000 -0.000000 -0.000000 0.000001 16.740433 -2.049030 0.000000 -0.000000 -0.000000 0.000000 9.617859 1.685014 0.000000 0.000000 0.000000 0.000002 22.037384 7.501101 0.000000 -0.000000 0.000000 -4.569968 11.014880 -2.160881 0.000008 0.000001 -0.000038 -10.592869 -0.524794 -2.231861 75.091947 37.702924 -29.408513 -27.841497 -0.000012 0.000569 -43.865094 111.859818 61.538386 -28.328825 0.000023 0.000028 -0.000320 -0.000044 0.000006 -2.464423 -1.573771 2.682317 -47.773140 -161.381579 -9.800189 -3.215265 -1.872526 1.924621 149.620348 32.914849 19.145941 -2.654955 -1.527858 1.513071 146.921208 27.659674 -29.411594 -2.018830 -1.152014 1.108061 -0.000004 -0.000003 0.000000 -9.108371 -0.517543 2.260115 98.893646 14.742186 -17.247498 -3.700065 0.000318 0.001512 96.379427 12.876596 -14.355287 -2.850082 0.000369 -0.000268 95.484091 10.936595 -12.028183 -2.772169 0.000000 -0.000019 0.000000 -0.000000 -0.000001 -9.532598 0.000272 0.000242 95.003669 14.668729 -16.145435 -3.700072 0.000337 0.003983 95.955900 12.055639 -13.262560 -2.950058 0.000334 -0.001798 97.324212 11.672249 -13.247110 -2.946645 -0.000014 -0.000158 -0.000000 0.000002 -0.000001 -9.103704 -0.042752 -1.864873 93.989489 17.727927 -18.936862 -3.379338 0.000323 -0.000784 98.391040 11.267820 -13.057971 -2.889766 0.000342 0.000675 103.912975 8.679364 -11.137889 -2.638800 -0.000013 0.000941 0.000000 -0.000000 0.000002 -8.076771 -0.486403 -3.806067 79.360924 20.736244 -17.131368 -3.600049 0.000248 -0.003549 82.366303 10.919536 -9.238933 -2.100039 0.000311 -0.005515 86.032038 6.014462 -5.406500 -2.115782 -0.000042 -0.003676 -0.000006 0.000001 -0.000004 4.570446 11.014691 -2.160851 -0.000018 0.000010 -0.000021 10.592458 -0.524602 -2.232315 -5.576465 -71.532469 -4.018327 27.841766 -0.000064 -0.000098 40.308539 -108.148225 53.728122 28.328838 -0.000029 0.000024 0.000021 -0.000089 0.000000 2.466134 -1.576159 2.681871 15.712445 131.370219 -76.648854 3.217798 -1.872013 1.916544 243.522526 49.001772 60.730258 2.656075 -1.528745 1.514627 -75.954224 20.795868 25.662721 2.020879 -1.154078 1.115142 -0.000000 0.000003 0.000004 9.109154 -0.517822 2.260093 236.814324 -32.647368 303.133002 3.700058 0.000147 -0.000470 82.099127 -13.664360 11.927535 2.850025 0.000102 0.000215 50.295665 -3.876158 1.819657 2.774879 -0.000031 -0.000030 0.000000 0.000002 0.000000 9.533238 0.000229 0.000270 235.612867 -35.813923 297.009929 3.700025 0.000193 -0.000399 83.590287 0.835093 -0.748509 2.949946 0.000055 -0.000195 38.889403 27.763088 -9.972286 2.952854 -0.000027 0.000061 0.000000 -0.000000 0.000002 9.104343 -0.042848 -1.864860 231.572291 -38.093328 288.900582 3.149955 0.000234 -0.000152 86.260754 15.040201 -14.098210 2.949840 0.000065 -0.000161 43.583563 44.952422 -18.784767 2.644323 0.000018 0.000053 -0.000001 -0.000002 -0.000002 8.077654 -0.486560 -3.806038 226.692011 -18.054814 319.071659 3.599865 0.000280 0.014515 94.553847 21.077035 -22.516412 2.099883 0.000082 0.007510 50.753787 40.182939 -19.700735 2.125509 0.000016 0.007520 0.000000 0.000004 0.000001 -8.207786 -6.751667 -1.599560 -0.077001 -0.000003 0.000080 -0.000002 -44.370110 0.345938 0.153719 -0.000000 -0.000000 0.000000 -44.423679 -3.043532 -0.076700 0.000000 -0.000002 -0.000006 -8.728667 10.710559 -0.000009 -0.000000 -0.000000 -0.000001 -0.000679 9.278123 0.000000 -0.000000 -0.000000 8.207792 -6.751710 -1.599556 -0.074518 -0.000003 0.000081 -0.000002 -44.370014 0.346960 0.148822 0.000002 0.000000 -0.000001 -44.423664 -3.044403 -0.074314 0.000000 -0.000002 -0.000004 -8.728671 10.710558 0.000007 -0.000000 -0.000000 0.000000 -0.000680 9.278137 -0.000000 0.000000 -0.000001 
0.000006 104.270477 1.554256 0.000010 0.000003 -0.000113 -0.000005 10.181587 0.131522 0.000001 -0.000003 0.000084 -0.000000 9.893967 -1.470711 0.000001 0.000000 -0.000000 -0.000000 9.220802 -1.370642 0.000000 -0.000000 -0.000000 0.000001 16.740433 -2.049030 0.000000 -0.000000 -0.000000 0.000000 9.617859 1.685014 0.000000 0.000000 0.000000 0.000002 22.037384 7.501101 0.000000 -0.000000 0.000000 -4.569968 11.014880 -2.160881 0.000008 0.000001 -0.000038 -10.592852 -0.524812 -2.231829 75.052366 43.566037 -34.126227 -27.841515 -0.000009 0.000568 -43.907311 110.187931 60.028292 -28.328817 0.000018 0.000035 -0.000319 -0.000044 0.000009 -2.464390 -1.573796 2.682308 -47.643749 -161.361184 -9.480050 -3.215254 -1.872537 1.924633 149.248513 32.944168 20.093798 -2.654957 -1.527866 1.513056 146.907165 27.758164 -28.357755 -2.018822 -1.152001 1.108064 -0.000002 -0.000000 0.000003 -9.108364 -0.517548 2.260130 98.730726 14.419305 -16.824412 -3.700067 0.000316 0.001521 96.603539 12.297781 -13.763822 -2.850075 0.000374 -0.000257 95.676545 10.396532 -11.473264 -2.772178 -0.000001 -0.000020 -0.000000 -0.000002 -0.000000 -9.532578 0.000277 0.000247 94.897282 14.285689 -15.699157 -3.700075 0.000332 0.003983 96.154857 11.502931 -12.695220 -2.950040 0.000347 -0.001784 97.115789 11.277112 -12.752804 -2.946634 -0.000015 -0.000156 -0.000001 0.000001 0.000001 -9.103689 -0.042756 -1.864875 93.711753 17.273511 -18.363624 -3.379345 0.000300 -0.000783 98.297398 10.862141 -12.568840 -2.889760 0.000348 0.000681 103.538380 8.474139 -10.803869 -2.638808 -0.000015 0.000944 -0.000000 0.000001 -0.000000 -8.076756 -0.486400 -3.806034 79.107784 20.325782 -16.713618 -3.600041 0.000269 -0.003539 82.238080 10.649739 -8.983223 -2.100012 0.000310 -0.005514 85.844843 5.847955 -5.234423 -2.115764 -0.000066 -0.003681 -0.000001 0.000001 -0.000002 4.570446 11.014691 -2.160851 -0.000018 0.000010 -0.000021 10.592463 -0.524603 -2.232316 -5.946738 -73.018014 -4.403505 27.841763 -0.000065 -0.000100 40.599788 -107.657032 53.673877 28.328842 -0.000044 0.000021 0.000022 -0.000089 -0.000001 2.466141 -1.576150 2.681865 15.971025 130.955900 -76.639442 3.217787 -1.872023 1.916542 244.011213 49.429775 60.567283 2.656059 -1.528748 1.514620 -75.220279 20.917198 25.361669 2.020895 -1.154083 1.115143 -0.000002 0.000003 0.000001 9.109160 -0.517803 2.260095 236.787277 -32.447866 303.416073 3.700046 0.000162 -0.000467 83.281528 -14.013444 12.487818 2.850026 0.000104 0.000217 51.453417 -4.672199 2.251640 2.774904 -0.000046 -0.000030 -0.000000 -0.000001 -0.000000 9.533233 0.000261 0.000279 232.691103 -36.135946 293.250047 3.700024 0.000176 -0.000391 83.095439 1.276196 -1.132929 2.949970 0.000044 -0.000198 37.665222 28.320302 -9.836266 2.952860 -0.000048 0.000062 -0.000000 0.000000 -0.000001 9.104340 -0.042839 -1.864870 226.345489 -39.228911 280.441120 3.149939 0.000247 -0.000162 85.067896 14.971566 -13.746590 2.949846 0.000061 -0.000163 42.166777 45.405656 -18.325481 2.644325 0.000029 0.000057 -0.000001 0.000004 -0.000003 8.077632 -0.486557 -3.806045 222.796645 -19.318779 312.574400 3.599852 0.000260 0.014507 91.888263 20.676622 -21.098439 2.099913 0.000077 0.007533 46.631266 40.157015 -17.929019 2.125501 0.000017 0.007520 0.000001 -0.000000 0.000001 -8.207786 -6.751667 -1.599560 -0.077001 -0.000003 0.000080 -0.000002 -44.370110 0.345938 0.153719 -0.000000 -0.000000 0.000000 -44.423679 -3.043532 -0.076700 0.000000 -0.000002 -0.000006 -8.728667 10.710559 -0.000009 -0.000000 -0.000000 -0.000001 -0.000679 9.278123 0.000000 -0.000000 -0.000000 8.207792 -6.751710 -1.599556 -0.074518 -0.000003 0.000081 -0.000002 -44.370014 0.346960 0.148822 0.000002 0.000000 -0.000001 -44.423664 -3.044403 -0.074314 0.000000 -0.000002 -0.000004 -8.728671 10.710558 0.000007 -0.000000 -0.000000 0.000000 -0.000680 9.278137 -0.000000 0.000000 -0.000001 
0.000006 104.270477 1.554256 0.000010 0.000003 -0.000113 -0.000005 10.181587 0.131522 0.000001 -0.000003 0.000084 -0.000000 9.893967 -1.470711 0.000001 0.000000 -0.000000 -0.000000 9.220802 -1.370642 0.000000 -0.000000 -0.000000 0.000001 16.740433 -2.049030 0.000000 -0.000000 -0.000000 0.000000 9.617859 1.685014 0.000000 0.000000 0.000000 0.000002 22.037384 7.501101 0.000000 -0.000000 0.000000 -4.569968 11.014880 -2.160881 0.000008 0.000001 -0.000038 -10.592853 -0.524806 -2.231826 75.395077 43.359144 -34.156342 -27.841492 0.000006 0.000550 -44.050393 110.065801 60.094142 -28.328835 0.000009 0.000028 -0.000319 -0.000045 0.000006 -2.464404 -1.573776 2.682313 -48.293208 -162.300758 -11.053842 -3.215252 -1.872537 1.924648 149.391919 32.980262 20.093489 -2.654964 -1.527888 1.513056 147.225506 27.705363 -28.489851 -2.018834 -1.152000 1.108065 -0.000002 -0.000001 0.000002 -9.108364 -0.517547 2.260133 99.207200 14.546148 -17.112832 -3.700055 0.000321 0.001513 97.706799 12.327379 -14.064611 -2.850075 0.000357 -0.000249 97.229485 10.417959 -11.812591 -2.772155 0.000001 -0.000020 0.000000 0.000001 -0.000000 -9.532576 0.000268 0.000238 94.761935 14.473857 -15.866642 -3.700074 0.000321 0.003986 96.265485 11.241939 -12.429490 -2.950058 0.000342 -0.001806 97.333112 11.000275 -12.487407 -2.946624 0.000003 -0.000162 -0.000000 -0.000001 -0.000000 -9.103694 -0.042759 -1.864859 93.497872 17.189440 -18.207157 -3.379352 0.000319 -0.000784 98.137401 10.520852 -12.141192 -2.889749 0.000360 0.000684 103.559458 8.092379 -10.324412 -2.638798 -0.000026 0.000936 0.000000 0.000001 0.000002 -8.076754 -0.486399 -3.806047 79.254011 20.031073 -16.510442 -3.600024 0.000263 -0.003545 82.332371 10.518254 -8.883436 -2.100007 0.000317 -0.005487 86.568058 5.834698 -5.288540 -2.115767 -0.000038 -0.003680 0.000001 -0.000001 -0.000004 4.570446 11.014691 -2.160851 -0.000018 0.000010 -0.000021 10.592463 -0.524597 -2.232316 -5.782009 -73.148642 -4.291633 27.841763 -0.000057 -0.000092 40.790474 -107.368245 53.665510 28.328842 -0.000044 0.000025 0.000021 -0.000089 -0.000001 2.466123 -1.576168 2.681892 14.619381 129.596296 -74.178163 3.217795 -1.872049 1.916535 245.939539 49.840256 59.256460 2.656069 -1.528755 1.514615 -74.933889 21.036506 25.260765 2.020892 -1.154056 1.115146 0.000003 0.000004 -0.000001 9.109156 -0.517812 2.260104 239.794117 -32.818533 305.760358 3.700065 0.000148 -0.000467 88.446565 -19.693776 19.194409 2.850048 0.000121 0.000215 61.322934 -6.279424 3.724429 2.774888 -0.000029 -0.000021 -0.000000 0.000003 -0.000000 9.533221 0.000225 0.000279 234.720325 -37.125592 294.037076 3.700020 0.000198 -0.000398 85.425101 -0.354957 0.325607 2.949974 0.000092 -0.000212 51.583054 23.531065 -11.494425 2.952869 -0.000028 0.000058 0.000001 0.000001 0.000002 9.104342 -0.042824 -1.864869 228.426278 -39.384339 282.969601 3.149947 0.000257 -0.000153 87.537337 13.430828 -12.869360 2.949852 0.000112 -0.000175 53.415409 41.219830 -21.428424 2.644325 0.000016 0.000055 -0.000002 0.000002 -0.000000 8.077627 -0.486571 -3.806054 224.452010 -19.303919 314.333147 3.599853 0.000275 0.014499 95.205051 20.004536 -21.589642 2.099874 0.000105 0.007504 54.027626 39.378339 -20.680701 2.125502 -0.000000 0.007518 0.000001 0.000003 -0.000003 -8.207786 -6.751667 -1.599560 -0.077001 -0.000003 0.000080 -0.000002 -44.370110 0.345938 0.153719 -0.000000 -0.000000 0.000000 -44.423679 -3.043532 -0.076700 0.000000 -0.000002 -0.000006 -8.728667 10.710559 -0.000009 -0.000000 -0.000000 -0.000001 -0.000679 9.278123 0.000000 -0.000000 -0.000000 8.207792 -6.751710 -1.599556 -0.074518 -0.000003 0.000081 -0.000002 -44.370014 0.346960 0.148822 0.000002 0.000000 -0.000001 -44.423664 -3.044403 -0.074314 0.000000 -0.000002 -0.000004 -8.728671 10.710558 0.000007 -0.000000 -0.000000 0.000000 -0.000680 9.278137 -0.000000 0.000000 -0.000001 
